HIERARCHY
ROOT Hips
{
	OFFSET -0.227964598812 -22.760726832 2.47424827444
	CHANNELS 6 Xposition Yposition Zposition Zrotation Yrotation Xrotation
	JOINT LeftHip
	{
		OFFSET 6.65176688731 -9.14209236777 -0.831340622
		CHANNELS 3 Zrotation Yrotation Xrotation
		JOINT LeftKnee
		{
			OFFSET 3.6642592578 -38.0861480281 -0.205710544401
			CHANNELS 3 Zrotation Yrotation Xrotation
			JOINT LeftFoot
			{
				OFFSET -1.44053589412 -40.3902370223 -4.24793426752
				CHANNELS 3 Zrotation Yrotation Xrotation
				End LeftToe
				{
                                  OFFSET 2.67407620414 -5.62353812052 12.0800064585
				}
			}
		}
	}
	JOINT RightHip
	{
		OFFSET -6.46953955792 -9.03882614267 -0.602443231936
		CHANNELS 3 Zrotation Yrotation Xrotation
		JOINT RightKnee
		{
			OFFSET -4.01905089635 -38.8522099254 -0.70415954308
			CHANNELS 3 Zrotation Yrotation Xrotation
			JOINT RightFoot
			{
				OFFSET 1.67065240164 -40.4233926535 -4.08508103092
				CHANNELS 3 Zrotation Yrotation Xrotation
				End RightToe
				{
                                        OFFSET -2.48512711724 -4.87370825538 12.498045037
				}
			}
		}
	}
	JOINT Waist
	{
		OFFSET -0.264750305953 10.975652864 -2.50294266756
		CHANNELS 3 Zrotation Yrotation Xrotation
		JOINT Spine
		{
			OFFSET 0.631825712542 13.9917463667 0.359842607391
			CHANNELS 3 Zrotation Yrotation Xrotation
                        JOINT Chest
                        {
                            OFFSET 0.131150488578 5.44054539427 2.33418241856
                            CHANNELS 3 Zrotation Yrotation Xrotation
                            JOINT Neck
                            {
                                OFFSET -0.343697535798 21.5766111304 -3.94439599675
                                CHANNELS 3 Zrotation Yrotation Xrotation
                                End Head
                                {
                                        OFFSET 0.101346624893 27.0641662845 2.13869126107
                                }
                            }
                            JOINT LeftInnerShoulder
                            {
                                OFFSET 7.84077878613 12.221085812 -3.28511794822
                                CHANNELS 3 Zrotation Yrotation Xrotation
                                JOINT LeftShoulder
                                {
                                        OFFSET 9.15156688733 2.98170197444 -0.836928849811
                                        CHANNELS 3 Zrotation Yrotation Xrotation
                                        JOINT LeftElbow
                                        {
                                                OFFSET 26.3454197296 -1.35054878539 -2.62981967767
                                                CHANNELS 3 Zrotation Yrotation Xrotation
                                                End LeftWrist
                                                {
                                                        OFFSET 25.2402339519 0.868794799785 -0.210381698239
                                                }
                                        }
                                }
                            }
                            JOINT RightInnerShoulder
                            {
                                OFFSET -8.18137474761 11.8980894808 -3.70185638671
                                CHANNELS 3 Zrotation Yrotation Xrotation
                                JOINT RightShoulder
                                {
                                        OFFSET -9.67651153914 3.24120917766 -0.817791468197
                                        CHANNELS 3 Zrotation Yrotation Xrotation
                                        JOINT RightElbow
                                        {
                                                OFFSET -25.6545191989 -1.4008878807 -2.0365527273
                                                CHANNELS 3 Zrotation Yrotation Xrotation
                                                End RightWrist
                                                {
                                                        OFFSET -25.854504346 0.717023220381 -0.697772888498
                                                }
                                        }
                                }
                            }
                        }
                }
            }
}
MOTION
Frames: 14
Frame Time: 0.0333333333333
0.00000 0.00000 0.00000 106.15103 73.23264 108.15563 8.24267 -3.13685 20.35593 6.97560 -22.82318 -0.32099 -1.08662 11.12334 -10.02669 5.71112 1.79468 -33.72923 1.98138 -11.09227 4.30998 20.76909 -18.28845 -0.32345 -8.10715 -7.26214 9.41272 -3.77911 -3.22556 0.57572 0.26391 -6.41762 6.12372 -11.01270 12.60177 -17.06360 -10.40790 -2.68559 -1.22260 -63.97900 -29.46871 23.87839 7.65791 -74.49299 2.10443 15.46261 -10.43500 2.00608 62.24230 -14.36887 12.00841 -10.34983 16.21273 -0.42666
3.52162 -2.68712 -0.00015 100.39227 74.25190 101.25144 7.35732 -5.18943 21.20031 4.43161 -27.15986 8.30765 -1.05674 10.03369 -8.06220 5.01264 2.61788 -37.08243 1.95978 -11.14864 14.63363 18.99266 -17.85202 0.47539 -7.91680 -8.08551 9.74310 -3.75644 -1.94258 1.26769 0.11679 -6.32093 5.76087 -11.53932 12.35204 -18.24702 -12.07997 -2.71533 -0.84098 -64.74588 -29.53080 24.44892 15.48265 -73.62808 -7.64097 17.37367 -8.49313 1.69353 60.95385 -12.08951 13.22151 -8.18111 10.53233 -5.18829
6.61225 -4.85284 0.03951 99.57368 75.38959 99.71803 7.98131 -5.59768 18.83916 3.30678 -26.21428 15.15988 -3.67058 9.24120 3.20470 4.30921 3.07353 -40.36518 2.69396 -13.12982 28.17328 14.75720 -18.97912 4.73165 -7.27096 -8.60202 9.77684 -3.17755 -0.94921 1.21504 0.04247 -6.53461 4.57470 -10.18564 14.26069 -18.44415 -15.88267 -3.32701 0.01206 -62.79094 -27.13254 25.00301 1.69754 -70.31818 8.68586 21.76993 -5.80145 1.50459 57.97723 -9.33434 15.67962 -6.11733 6.35331 -4.49930
14.43419 -4.63836 0.03717 85.68026 76.54460 85.38829 5.95383 -6.37010 17.00227 0.68106 -24.83526 27.04052 -2.92742 11.48470 -0.87921 5.78020 3.23186 -37.66203 2.91349 -12.17782 36.25636 14.27517 -18.02200 -3.83499 -6.58683 -7.00810 9.61488 -3.60283 0.56637 1.23075 -0.71601 -4.44672 4.76285 -7.80094 14.76461 -19.66066 -17.18160 -5.81874 0.43361 -64.87742 -23.24573 24.90146 -2.98642 -59.30654 14.25967 21.99423 0.06743 2.73452 60.43667 -6.68311 15.15734 -5.42658 4.01040 -4.66996
18.21378 1.40816 0.06968 66.22673 75.89113 65.22991 3.89163 -6.23901 13.07380 -0.46112 -19.45596 35.73002 -4.20866 11.65208 7.99903 8.19224 1.26403 -29.96994 3.34701 -12.95879 35.20771 9.68736 -19.55400 -2.35277 -4.67068 -4.34374 8.94852 -4.40246 2.79351 2.43241 -1.76416 -2.16541 4.28806 -5.99770 13.87539 -17.62171 -23.55849 -6.21522 1.64741 -59.97523 -17.75036 21.16114 -4.83220 -47.66265 19.19381 27.17972 5.61281 4.58433 57.13768 -4.62825 16.86577 -2.98660 6.11666 0.74380
25.40315 3.02756 0.10997 56.51270 72.31121 54.92337 1.46870 -5.84830 8.43061 -1.56346 -16.55405 37.83891 -2.51138 10.33630 8.13778 7.93923 1.40746 -25.23199 1.76039 -8.54255 37.17400 10.72522 -22.03741 5.99100 -4.52887 -2.64144 8.79364 -5.97798 4.19581 1.10724 -3.36064 -0.56964 4.53374 -3.41270 12.37417 -19.25617 -26.60549 -1.42734 1.65111 -57.78885 -11.54006 16.81474 -2.56283 -37.58135 16.49750 28.20073 7.44970 3.29409 56.98556 1.21516 20.00281 -0.93205 9.34827 3.18697
26.98537 11.39651 0.10073 61.66052 70.56567 58.90961 2.59762 -2.36277 7.22648 0.74181 -8.75570 25.52399 -0.47348 11.71621 2.51415 6.44507 -1.90629 -19.82986 0.62326 -7.84200 41.26974 12.32570 -21.61986 9.21359 -5.69235 -1.17998 8.82540 -7.79893 5.02657 1.67487 -4.67182 0.46203 4.90817 0.33632 8.90328 -16.41583 -26.04580 1.26987 1.65596 -57.93711 -7.32482 12.00198 -0.78997 -28.88129 12.69715 24.52108 8.87001 2.06181 60.66235 4.87474 21.50524 -0.98019 20.28575 6.57267
26.85344 16.32115 0.07259 68.73359 72.79230 67.69151 2.26968 -5.44320 -1.04249 1.05177 -10.64629 25.55126 -0.59417 10.92257 0.19147 9.19206 -5.18016 -11.04324 2.04689 -10.51619 29.52943 8.99657 -24.62538 2.12538 -5.07119 1.91840 8.49125 -6.30660 4.10528 -0.07672 -3.03314 0.53575 5.42098 1.68893 9.00677 -14.64999 -29.15560 5.86717 0.09519 -56.27517 -2.71065 10.48435 -0.82906 -21.54388 8.06785 27.59275 6.64872 -0.17638 55.36483 8.84734 22.57149 -3.50543 25.74929 4.18017
26.29819 20.04617 0.03530 52.91570 72.84727 51.20738 2.56518 -9.09781 -11.35397 1.04191 -9.20511 34.11159 -2.95414 10.27456 -1.20706 11.28691 -10.90743 4.66137 4.05883 -12.95591 9.58310 5.43337 -23.53568 -9.12862 -2.79289 7.10698 8.78772 -6.46376 3.56906 -1.86791 -1.48109 2.82131 6.29555 1.71932 5.18235 -11.58216 -27.22793 10.41458 -1.96149 -60.32379 1.79733 6.97306 4.68002 -11.27790 1.65396 23.77469 6.74774 -1.94404 54.86757 15.17485 19.36801 -8.19766 29.70544 3.83505
21.58238 20.22898 0.05561 39.90311 69.13080 38.05914 1.99963 -12.21700 -15.62533 -0.09511 -14.25494 33.52809 -1.59902 7.97670 -4.51845 8.58619 -13.68060 13.39461 2.47791 -10.73497 2.35961 7.81204 -23.12113 -7.86229 -2.35060 10.70831 8.09820 -7.62479 4.52545 -1.15363 -1.73520 5.51859 7.43134 1.29401 -1.75771 -10.87383 -22.57029 17.15021 -2.92109 -64.12721 4.98564 3.29081 8.12334 -10.62283 -1.42336 17.49010 7.15325 -3.60995 59.01041 21.82530 18.92360 -12.19567 32.63016 2.04584
19.21461 15.00120 0.03040 39.79735 68.41594 40.17572 4.87862 -12.82210 -21.12109 2.47739 -16.71068 24.58187 -3.99065 7.71892 -1.96889 6.76317 -15.28069 16.67829 1.74403 -9.74817 -0.12066 9.06042 -23.40055 -5.18166 -3.40273 12.81256 7.33958 -8.31518 4.63701 -3.11780 -1.30946 6.72767 8.66319 2.06335 -6.32915 -8.59436 -15.35766 24.33942 -3.42594 -66.35010 7.68872 2.26664 9.43729 -10.89802 1.34567 9.25056 4.43310 -5.97995 61.59697 26.57230 19.28394 -13.70412 35.66389 2.46141
16.82284 11.63607 -0.00120 39.30579 68.60813 40.03956 7.42238 -14.52827 -22.56811 6.39505 -20.35786 13.25966 -7.95812 8.35791 5.30018 5.66220 -16.37867 19.21506 1.91411 -8.32985 -0.79819 8.59711 -23.58350 -3.84852 -3.36359 14.88756 5.98309 -8.88105 5.68073 -2.61321 -1.17639 8.75558 8.76072 1.82015 -6.38318 -9.13394 -15.16828 25.46082 -5.23649 -62.65902 8.03533 1.78010 9.43121 -10.63283 -4.45851 7.56281 4.89344 -5.48318 55.90649 29.55915 16.94940 -14.09561 37.39079 3.13064
15.22313 9.25356 -0.03047 37.93090 66.98102 39.75807 9.86960 -13.91574 -27.30525 4.35519 -17.69983 15.23740 -8.77591 7.64028 7.42308 0.68404 -18.74975 22.56670 2.89553 -8.34866 2.21042 10.16427 -23.46929 1.29336 -3.14941 16.63383 6.42869 -9.62376 6.74830 -2.37742 -1.31231 9.60181 8.23787 2.57491 -6.24380 -9.31383 -14.98828 25.95036 -5.52467 -58.88198 8.87464 -0.73428 10.39013 -10.53430 -7.80264 6.12287 5.03688 -5.49189 51.64289 30.19743 14.20154 -16.33908 41.48438 -1.93647
15.03929 6.55283 -0.05978 40.44325 67.47621 42.24522 9.71545 -13.46678 -31.59790 2.55351 -13.45177 21.65734 -4.87486 8.69672 3.79216 0.69182 -17.72172 22.39002 1.95723 -4.26322 5.12347 10.10701 -22.46846 3.74455 -3.47173 16.81346 6.29430 -9.47020 6.78699 -3.89778 -1.97529 9.62251 8.22283 2.56917 -5.44441 -7.43706 -14.70114 26.73841 -6.36231 -57.90074 7.68741 -0.72074 8.43193 -8.89071 -7.68686 5.68542 3.82799 -6.25357 52.64094 31.26785 16.96050 -14.29804 42.63133 -0.41607
